<svg width="688" height="400" viewBox="0 0 688 400" fill="none" xmlns="http://www.w3.org/2000/svg">
<rect y="174" width="24" height="24" fill="black"/>
<rect y="198" width="24" height="24" fill="black"/>
<rect y="222" width="24" height="24" fill="black"/>
<rect x="24" y="222" width="24" height="24" fill="black"/>
<rect x="24" y="246" width="24" height="24" fill="black"/>
<rect x="48" y="246" width="24" height="24" fill="black"/>
<rect x="48" y="270" width="24" height="24" fill="black"/>
<rect x="72" y="270" width="24" height="24" fill="black"/>
<rect x="96" y="270" width="24" height="24" fill="black"/>
<rect x="120" y="270" width="24" height="24" fill="black"/>
<rect x="120" y="294" width="24" height="24" fill="black"/>
<rect x="24" y="174" width="24" height="24" fill="black"/>
<rect x="48" y="174" width="24" height="24" fill="black"/>
<rect x="72" y="174" width="24" height="24" fill="black"/>
<rect x="72" y="198" width="24" height="24" fill="black"/>
<rect x="96" y="198" width="24" height="24" fill="black"/>
<rect x="96" y="222" width="24" height="24" fill="black"/>
<rect x="120" y="222" width="24" height="24" fill="black"/>
<rect x="24" y="198" width="24" height="24" fill="#C4C4C4"/>
<rect x="48" y="198" width="24" height="24" fill="#C4C4C4"/>
<rect x="48" y="222" width="24" height="24" fill="#C4C4C4"/>
<rect x="72" y="222" width="24" height="24" fill="#C4C4C4"/>
<rect x="72" y="246" width="24" height="24" fill="#C4C4C4"/>
<rect x="120" y="246" width="24" height="24" fill="#C4C4C4"/>
<rect x="96" y="246" width="24" height="24" fill="#C4C4C4"/>
<rect x="168" y="64" width="24" height="24" fill="black"/>
<rect x="144" y="88" width="24" height="24" fill="black"/>
<rect x="552" y="88" width="24" height="24" fill="black"/>
<rect x="144" y="136" width="24" height="24" fill="black"/>
<rect x="552" y="136" width="24" height="24" fill="black"/>
<rect x="144" y="184" width="24" height="24" fill="black"/>
<rect x="552" y="184" width="24" height="24" fill="black"/>
<rect x="144" y="232" width="24" height="24" fill="black"/>
<rect x="552" y="232" width="24" height="24" fill="black"/>
<rect x="144" y="280" width="24" height="24" fill="black"/>
<rect x="552" y="280" width="24" height="24" fill="black"/>
<rect x="144" y="328" width="24" height="24" fill="black"/>
<rect x="552" y="328" width="24" height="24" fill="black"/>
<rect x="144" y="112" width="24" height="24" fill="black"/>
<rect x="552" y="112" width="24" height="24" fill="black"/>
<rect x="144" y="160" width="24" height="24" fill="black"/>
<rect x="552" y="160" width="24" height="24" fill="black"/>
<rect x="144" y="208" width="24" height="24" fill="black"/>
<rect x="552" y="208" width="24" height="24" fill="black"/>
<rect x="144" y="256" width="24" height="24" fill="black"/>
<rect x="552" y="256" width="24" height="24" fill="black"/>
<rect x="144" y="304" width="24" height="24" fill="black"/>
<rect x="552" y="304" width="24" height="24" fill="black"/>
<rect x="168" y="352" width="24" height="24" fill="black"/>
<rect x="360" y="40" width="24" height="24" fill="black"/>
<rect x="360" y="376" width="24" height="24" fill="black"/>
<rect x="192" y="40" width="24" height="24" fill="black"/>
<rect x="192" y="376" width="24" height="24" fill="black"/>
<rect x="384" y="40" width="24" height="24" fill="black"/>
<rect x="384" y="376" width="24" height="24" fill="black"/>
<rect x="216" y="40" width="24" height="24" fill="black"/>
<rect x="216" y="376" width="24" height="24" fill="black"/>
<rect x="408" y="40" width="24" height="24" fill="black"/>
<rect x="408" y="376" width="24" height="24" fill="black"/>
<rect x="240" y="40" width="24" height="24" fill="black"/>
<rect x="240" y="376" width="24" height="24" fill="black"/>
<rect x="432" y="40" width="24" height="24" fill="black"/>
<rect x="432" y="376" width="24" height="24" fill="black"/>
<rect x="264" y="40" width="24" height="24" fill="black"/>
<rect x="264" y="376" width="24" height="24" fill="black"/>
<rect x="456" y="40" width="24" height="24" fill="black"/>
<rect x="456" y="376" width="24" height="24" fill="black"/>
<rect x="288" y="40" width="24" height="24" fill="black"/>
<rect x="288" y="376" width="24" height="24" fill="black"/>
<rect x="480" y="40" width="24" height="24" fill="black"/>
<rect x="480" y="376" width="24" height="24" fill="black"/>
<rect x="312" y="40" width="24" height="24" fill="black"/>
<rect x="312" y="376" width="24" height="24" fill="black"/>
<rect x="504" y="40" width="24" height="24" fill="black"/>
<rect x="504" y="376" width="24" height="24" fill="black"/>
<rect x="336" y="40" width="24" height="24" fill="black"/>
<rect x="336" y="376" width="24" height="24" fill="black"/>
<rect x="528" y="64" width="24" height="24" fill="black"/>
<rect x="528" y="352" width="24" height="24" fill="black"/>
<rect x="168" y="88" width="24" height="24" fill="#F4D87F"/>
<rect x="192" y="88" width="24" height="24" fill="#F4D87F"/>
<rect x="192" y="112" width="24" height="24" fill="#F4D87F"/>
<rect x="216" y="88" width="24" height="24" fill="#F4D87F"/>
<rect x="192" y="64" width="24" height="24" fill="#F4D87F"/>
<rect x="288" y="64" width="24" height="24" fill="#F4D87F"/>
<rect x="384" y="64" width="24" height="24" fill="#F4D87F"/>
<rect x="240" y="64" width="24" height="24" fill="#F4D87F"/>
<rect x="336" y="64" width="24" height="24" fill="#F4D87F"/>
<rect x="432" y="64" width="24" height="24" fill="#F4D87F"/>
<rect x="480" y="64" width="24" height="24" fill="#F4D87F"/>
<rect x="216" y="64" width="24" height="24" fill="#F4D87F"/>
<rect x="312" y="64" width="24" height="24" fill="#F4D87F"/>
<rect x="408" y="64" width="24" height="24" fill="#F4D87F"/>
<rect x="264" y="64" width="24" height="24" fill="#F4D87F"/>
<rect x="360" y="64" width="24" height="24" fill="#F4D87F"/>
<rect x="456" y="64" width="24" height="24" fill="#F4D87F"/>
<rect x="504" y="64" width="24" height="24" fill="#F4D87F"/>
<rect x="504" y="88" width="24" height="24" fill="#F4D87F"/>
<rect x="504" y="112" width="24" height="24" fill="#F4D87F"/>
<rect x="528" y="112" width="24" height="24" fill="#F4D87F"/>
<rect x="528" y="160" width="24" height="24" fill="#F4D87F"/>
<rect x="528" y="232" width="24" height="24" fill="#F4D87F"/>
<rect x="528" y="136" width="24" height="24" fill="#F4D87F"/>
<rect x="528" y="208" width="24" height="24" fill="#F4D87F"/>
<rect x="528" y="184" width="24" height="24" fill="#F4D87F"/>
<rect x="528" y="256" width="24" height="24" fill="#F4D87F"/>
<rect x="528" y="280" width="24" height="24" fill="#F4D87F"/>
<rect x="528" y="88" width="24" height="24" fill="#F4D87F"/>
<rect x="480" y="88" width="24" height="24" fill="#F4D87F"/>
<rect x="168" y="184" width="24" height="24" fill="#F4D87F"/>
<rect x="168" y="280" width="24" height="24" fill="#F4D87F"/>
<rect x="168" y="136" width="24" height="24" fill="#F4D87F"/>
<rect x="168" y="232" width="24" height="24" fill="#F4D87F"/>
<rect x="168" y="328" width="24" height="24" fill="#F4D87F"/>
<rect x="168" y="112" width="24" height="24" fill="#F4D87F"/>
<rect x="168" y="208" width="24" height="24" fill="#F4D87F"/>
<rect x="168" y="304" width="24" height="24" fill="#F4D87F"/>
<rect x="192" y="304" width="24" height="24" fill="#F4D87F"/>
<rect x="528" y="304" width="24" height="24" fill="#F4D87F"/>
<rect x="504" y="304" width="24" height="24" fill="#F4D87F"/>
<rect x="528" y="328" width="24" height="24" fill="#F4D87F"/>
<rect x="504" y="328" width="24" height="24" fill="#F4D87F"/>
<rect x="480" y="328" width="24" height="24" fill="#F4D87F"/>
<rect x="504" y="352" width="24" height="24" fill="#F4D87F"/>
<rect x="480" y="352" width="24" height="24" fill="#F4D87F"/>
<rect x="192" y="328" width="24" height="24" fill="#F4D87F"/>
<rect x="216" y="328" width="24" height="24" fill="#F4D87F"/>
<rect x="192" y="352" width="24" height="24" fill="#F4D87F"/>
<rect x="264" y="352" width="24" height="24" fill="#F4D87F"/>
<rect x="336" y="352" width="24" height="24" fill="#F4D87F"/>
<rect x="408" y="352" width="24" height="24" fill="#F4D87F"/>
<rect x="216" y="352" width="24" height="24" fill="#F4D87F"/>
<rect x="288" y="352" width="24" height="24" fill="#F4D87F"/>
<rect x="360" y="352" width="24" height="24" fill="#F4D87F"/>
<rect x="432" y="352" width="24" height="24" fill="#F4D87F"/>
<rect x="240" y="352" width="24" height="24" fill="#F4D87F"/>
<rect x="312" y="352" width="24" height="24" fill="#F4D87F"/>
<rect x="384" y="352" width="24" height="24" fill="#F4D87F"/>
<rect x="456" y="352" width="24" height="24" fill="#F4D87F"/>
<rect x="168" y="160" width="24" height="24" fill="#F4D87F"/>
<rect x="168" y="256" width="24" height="24" fill="#F4D87F"/>
<rect x="240" y="88" width="24" height="24" fill="#FFAED7"/>
<rect x="336" y="88" width="24" height="24" fill="#FFAED7"/>
<rect x="216" y="112" width="24" height="24" fill="#FFAED7"/>
<rect x="312" y="112" width="24" height="24" fill="#D74894"/>
<rect x="408" y="112" width="24" height="24" fill="#FFAED7"/>
<rect x="192" y="136" width="24" height="24" fill="#FFAED7"/>
<rect x="288" y="136" width="24" height="24" fill="#FFAED7"/>
<rect x="384" y="136" width="24" height="24" fill="#FFAED7"/>
<rect x="192" y="160" width="24" height="24" fill="#FFAED7"/>
<rect x="192" y="184" width="24" height="24" fill="#FFAED7"/>
<rect x="192" y="208" width="24" height="24" fill="#FFAED7"/>
<rect x="192" y="232" width="24" height="24" fill="#FFAED7"/>
<rect x="192" y="256" width="24" height="24" fill="#FFAED7"/>
<rect x="192" y="280" width="24" height="24" fill="#FFAED7"/>
<rect x="216" y="304" width="24" height="24" fill="#FFAED7"/>
<rect x="240" y="328" width="24" height="24" fill="#FFAED7"/>
<rect x="336" y="328" width="24" height="24" fill="#FFAED7"/>
<rect x="312" y="304" width="24" height="24" fill="#FFAED7"/>
<rect x="408" y="304" width="24" height="24" fill="#FFAED7"/>
<rect x="288" y="280" width="24" height="24" fill="#FFAED7"/>
<rect x="288" y="256" width="24" height="24" fill="#FFAED7"/>
<rect x="288" y="232" width="24" height="24" fill="#FFAED7"/>
<rect x="288" y="208" width="24" height="24" fill="#FFAED7"/>
<rect x="288" y="184" width="24" height="24" fill="#FFAED7"/>
<rect x="288" y="160" width="24" height="24" fill="#FFAED7"/>
<rect x="384" y="160" width="24" height="24" fill="#FFAED7"/>
<rect x="384" y="184" width="24" height="24" fill="#FFAED7"/>
<rect x="384" y="208" width="24" height="24" fill="#FFAED7"/>
<rect x="384" y="232" width="24" height="24" fill="#FFAED7"/>
<rect x="384" y="256" width="24" height="24" fill="#FFAED7"/>
<rect x="384" y="280" width="24" height="24" fill="#FFAED7"/>
<rect x="288" y="88" width="24" height="24" fill="#FFAED7"/>
<rect x="384" y="88" width="24" height="24" fill="#FFAED7"/>
<rect x="264" y="112" width="24" height="24" fill="#FFAED7"/>
<rect x="360" y="112" width="24" height="24" fill="#FFAED7"/>
<rect x="456" y="112" width="24" height="24" fill="#FFAED7"/>
<rect x="432" y="88" width="24" height="24" fill="#FFAED7"/>
<rect x="240" y="136" width="24" height="24" fill="#D74894"/>
<rect x="336" y="136" width="24" height="24" fill="#FFAED7"/>
<rect x="432" y="136" width="24" height="24" fill="#FFAED7"/>
<rect x="480" y="136" width="24" height="24" fill="#FFAED7"/>
<rect x="240" y="160" width="24" height="24" fill="#FFAED7"/>
<rect x="240" y="184" width="24" height="24" fill="#FFAED7"/>
<rect x="240" y="208" width="24" height="24" fill="#FFAED7"/>
<rect x="240" y="232" width="24" height="24" fill="#FFAED7"/>
<rect x="240" y="256" width="24" height="24" fill="#FFAED7"/>
<rect x="240" y="280" width="24" height="24" fill="#FFAED7"/>
<rect x="264" y="304" width="24" height="24" fill="#FFAED7"/>
<rect x="288" y="328" width="24" height="24" fill="#FFAED7"/>
<rect x="384" y="328" width="24" height="24" fill="#FFAED7"/>
<rect x="360" y="304" width="24" height="24" fill="#FFAED7"/>
<rect x="456" y="304" width="24" height="24" fill="#FFAED7"/>
<rect x="336" y="280" width="24" height="24" fill="#FFAED7"/>
<rect x="336" y="256" width="24" height="24" fill="#FFAED7"/>
<rect x="336" y="232" width="24" height="24" fill="#FFAED7"/>
<rect x="336" y="208" width="24" height="24" fill="#D74894"/>
<rect x="336" y="184" width="24" height="24" fill="#FFAED7"/>
<rect x="336" y="160" width="24" height="24" fill="#FFAED7"/>
<rect x="432" y="160" width="24" height="24" fill="#D74894"/>
<rect x="480" y="160" width="24" height="24" fill="#FFAED7"/>
<rect x="432" y="184" width="24" height="24" fill="#FFAED7"/>
<rect x="480" y="184" width="24" height="24" fill="#FFAED7"/>
<rect x="432" y="208" width="24" height="24" fill="#FFAED7"/>
<rect x="480" y="208" width="24" height="24" fill="#FFAED7"/>
<rect x="432" y="232" width="24" height="24" fill="#FFAED7"/>
<rect x="480" y="232" width="24" height="24" fill="#FFAED7"/>
<rect x="432" y="256" width="24" height="24" fill="#FFAED7"/>
<rect x="480" y="256" width="24" height="24" fill="#FFAED7"/>
<rect x="432" y="280" width="24" height="24" fill="#FFAED7"/>
<rect x="480" y="280" width="24" height="24" fill="#FFAED7"/>
<rect x="432" y="328" width="24" height="24" fill="#FFAED7"/>
<rect x="264" y="88" width="24" height="24" fill="#FFAED7"/>
<rect x="360" y="88" width="24" height="24" fill="#FFAED7"/>
<rect x="240" y="112" width="24" height="24" fill="#FFAED7"/>
<rect x="336" y="112" width="24" height="24" fill="#FFAED7"/>
<rect x="432" y="112" width="24" height="24" fill="#FFAED7"/>
<rect x="216" y="136" width="24" height="24" fill="#FFAED7"/>
<rect x="312" y="136" width="24" height="24" fill="#FFAED7"/>
<rect x="408" y="136" width="24" height="24" fill="#FFAED7"/>
<rect x="216" y="160" width="24" height="24" fill="#FFAED7"/>
<rect x="216" y="184" width="24" height="24" fill="#FFAED7"/>
<rect x="216" y="208" width="24" height="24" fill="#D74894"/>
<rect x="216" y="232" width="24" height="24" fill="#FFAED7"/>
<rect x="216" y="256" width="24" height="24" fill="#FFAED7"/>
<rect x="216" y="280" width="24" height="24" fill="#D74894"/>
<rect x="240" y="304" width="24" height="24" fill="#FFAED7"/>
<rect x="264" y="328" width="24" height="24" fill="#FFAED7"/>
<rect x="360" y="328" width="24" height="24" fill="#FFAED7"/>
<rect x="336" y="304" width="24" height="24" fill="#FFAED7"/>
<rect x="432" y="304" width="24" height="24" fill="#FFAED7"/>
<rect x="312" y="280" width="24" height="24" fill="#FFAED7"/>
<rect x="312" y="256" width="24" height="24" fill="#FFAED7"/>
<rect x="312" y="232" width="24" height="24" fill="#FFAED7"/>
<rect x="312" y="208" width="24" height="24" fill="#FFAED7"/>
<rect x="312" y="184" width="24" height="24" fill="#FFAED7"/>
<rect x="312" y="160" width="24" height="24" fill="#FFAED7"/>
<rect x="408" y="160" width="24" height="24" fill="#FFAED7"/>
<rect x="408" y="184" width="24" height="24" fill="#FFAED7"/>
<rect x="408" y="208" width="24" height="24" fill="#FFAED7"/>
<rect x="408" y="232" width="24" height="24" fill="#D74894"/>
<rect x="408" y="256" width="24" height="24" fill="#FFAED7"/>
<rect x="408" y="280" width="24" height="24" fill="#FFAED7"/>
<rect x="312" y="88" width="24" height="24" fill="#FFAED7"/>
<rect x="408" y="88" width="24" height="24" fill="#FFAED7"/>
<rect x="288" y="112" width="24" height="24" fill="#FFAED7"/>
<rect x="384" y="112" width="24" height="24" fill="#D74894"/>
<rect x="480" y="112" width="24" height="24" fill="#FFAED7"/>
<rect x="456" y="88" width="24" height="24" fill="#FFAED7"/>
<rect x="264" y="136" width="24" height="24" fill="#FFAED7"/>
<rect x="360" y="136" width="24" height="24" fill="#FFAED7"/>
<rect x="456" y="136" width="24" height="24" fill="#FFAED7"/>
<rect x="504" y="136" width="24" height="24" fill="#FFAED7"/>
<rect x="264" y="160" width="24" height="24" fill="#FFAED7"/>
<rect x="264" y="184" width="24" height="24" fill="#FFAED7"/>
<rect x="264" y="208" width="24" height="24" fill="#FFAED7"/>
<rect x="264" y="232" width="24" height="24" fill="#D74894"/>
<rect x="264" y="256" width="24" height="24" fill="#FFAED7"/>
<rect x="264" y="280" width="24" height="24" fill="#FFAED7"/>
<rect x="288" y="304" width="24" height="24" fill="#D74894"/>
<rect x="312" y="328" width="24" height="24" fill="#FFAED7"/>
<rect x="408" y="328" width="24" height="24" fill="#FFAED7"/>
<rect x="384" y="304" width="24" height="24" fill="#D74894"/>
<rect x="480" y="304" width="24" height="24" fill="#FFAED7"/>
<rect x="360" y="280" width="24" height="24" fill="#FFAED7"/>
<rect x="360" y="256" width="24" height="24" fill="#FFAED7"/>
<rect x="360" y="232" width="24" height="24" fill="#FFAED7"/>
<rect x="360" y="208" width="24" height="24" fill="#FFAED7"/>
<rect x="360" y="184" width="24" height="24" fill="#FFAED7"/>
<rect x="360" y="160" width="24" height="24" fill="#FFAED7"/>
<rect x="456" y="160" width="24" height="24" fill="#FFAED7"/>
<rect x="504" y="160" width="24" height="24" fill="#FFAED7"/>
<rect x="456" y="184" width="24" height="24" fill="#FFAED7"/>
<rect x="504" y="184" width="24" height="24" fill="#FFAED7"/>
<rect x="456" y="208" width="24" height="24" fill="#FFAED7"/>
<rect x="504" y="208" width="24" height="24" fill="#FFAED7"/>
<rect x="456" y="232" width="24" height="24" fill="#FFAED7"/>
<rect x="504" y="232" width="24" height="24" fill="#FFAED7"/>
<rect x="456" y="256" width="24" height="24" fill="#D74894"/>
<rect x="504" y="256" width="24" height="24" fill="#FFAED7"/>
<rect x="456" y="280" width="24" height="24" fill="#FFAED7"/>
<rect x="504" y="280" width="24" height="24" fill="#FFAED7"/>
<rect x="456" y="328" width="24" height="24" fill="#FFAED7"/>
<rect x="336" y="107" width="24" height="24" fill="#C4C4C4"/>
<rect x="336" y="155" width="24" height="24" fill="#C4C4C4"/>
<rect x="312" y="203" width="24" height="24" fill="#C4C4C4"/>
<rect x="312" y="251" width="24" height="24" fill="#C4C4C4"/>
<rect x="360" y="203" width="24" height="24" fill="#C4C4C4"/>
<rect x="360" y="107" width="24" height="24" fill="#C4C4C4"/>
<rect x="360" y="155" width="24" height="24" fill="#C4C4C4"/>
<rect x="336" y="203" width="24" height="24" fill="#C4C4C4"/>
<rect x="384" y="203" width="24" height="24" fill="#C4C4C4"/>
<rect x="384" y="275" width="24" height="24" fill="#C4C4C4"/>
<rect x="408" y="275" width="24" height="24" fill="#C4C4C4"/>
<rect x="384" y="179" width="24" height="24" fill="#C4C4C4"/>
<rect x="384" y="251" width="24" height="24" fill="#C4C4C4"/>
<rect x="432" y="251" width="24" height="24" fill="#C4C4C4"/>
<rect x="480" y="251" width="24" height="24" fill="#C4C4C4"/>
<rect x="480" y="275" width="24" height="24" fill="#C4C4C4"/>
<rect x="528" y="251" width="24" height="24" fill="#C4C4C4"/>
<rect x="528" y="275" width="24" height="24" fill="#C4C4C4"/>
<rect x="576" y="251" width="24" height="24" fill="#C4C4C4"/>
<rect x="576" y="275" width="24" height="24" fill="#C4C4C4"/>
<rect x="576" y="299" width="24" height="24" fill="#C4C4C4"/>
<rect x="600" y="299" width="24" height="24" fill="#C4C4C4"/>
<rect x="408" y="251" width="24" height="24" fill="#C4C4C4"/>
<rect x="456" y="251" width="24" height="24" fill="#C4C4C4"/>
<rect x="504" y="251" width="24" height="24" fill="#C4C4C4"/>
<rect x="552" y="251" width="24" height="24" fill="#C4C4C4"/>
<rect x="528" y="227" width="24" height="24" fill="#C4C4C4"/>
<rect x="480" y="227" width="24" height="24" fill="#C4C4C4"/>
<rect x="456" y="227" width="24" height="24" fill="#C4C4C4"/>
<rect x="456" y="275" width="24" height="24" fill="#C4C4C4"/>
<rect x="504" y="179" width="24" height="24" fill="#C4C4C4"/>
<rect x="504" y="203" width="24" height="24" fill="#C4C4C4"/>
<rect x="408" y="179" width="24" height="24" fill="#C4C4C4"/>
<rect x="528" y="179" width="24" height="24" fill="#C4C4C4"/>
<rect x="528" y="203" width="24" height="24" fill="#C4C4C4"/>
<rect x="528" y="155" width="24" height="24" fill="#C4C4C4"/>
<rect x="576" y="155" width="24" height="24" fill="#C4C4C4"/>
<rect x="576" y="131" width="24" height="24" fill="#C4C4C4"/>
<rect x="576" y="107" width="24" height="24" fill="#C4C4C4"/>
<rect x="576" y="179" width="24" height="24" fill="#C4C4C4"/>
<rect x="432" y="179" width="24" height="24" fill="#C4C4C4"/>
<rect x="552" y="179" width="24" height="24" fill="#C4C4C4"/>
<rect x="552" y="155" width="24" height="24" fill="#C4C4C4"/>
<rect x="552" y="131" width="24" height="24" fill="#C4C4C4"/>
<rect x="600" y="155" width="24" height="24" fill="#C4C4C4"/>
<rect x="600" y="203" width="24" height="24" fill="#C4C4C4"/>
<rect x="624" y="203" width="24" height="24" fill="#C4C4C4"/>
<rect x="600" y="131" width="24" height="24" fill="#C4C4C4"/>
<rect x="600" y="107" width="24" height="24" fill="#C4C4C4"/>
<rect x="600" y="179" width="24" height="24" fill="#C4C4C4"/>
<rect x="600" y="227" width="24" height="24" fill="#C4C4C4"/>
<rect x="624" y="227" width="24" height="24" fill="#C4C4C4"/>
<rect x="408" y="155" width="24" height="24" fill="#C4C4C4"/>
<rect x="384" y="155" width="24" height="24" fill="#C4C4C4"/>
<rect x="336" y="131" width="24" height="24" fill="#C4C4C4"/>
<rect x="336" y="179" width="24" height="24" fill="#C4C4C4"/>
<rect x="456" y="179" width="24" height="24" fill="#C4C4C4"/>
<rect x="456" y="203" width="24" height="24" fill="#C4C4C4"/>
<rect x="312" y="227" width="24" height="24" fill="#C4C4C4"/>
<rect x="312" y="275" width="24" height="24" fill="#C4C4C4"/>
<rect x="360" y="227" width="24" height="24" fill="#C4C4C4"/>
<rect x="384" y="131" width="24" height="24" fill="#C4C4C4"/>
<rect x="360" y="131" width="24" height="24" fill="#C4C4C4"/>
<rect x="360" y="179" width="24" height="24" fill="#C4C4C4"/>
<rect x="480" y="179" width="24" height="24" fill="#C4C4C4"/>
<rect x="480" y="203" width="24" height="24" fill="#C4C4C4"/>
<rect x="336" y="227" width="24" height="24" fill="#C4C4C4"/>
<rect x="384" y="227" width="24" height="24" fill="#C4C4C4"/>
<rect x="384" y="299" width="24" height="24" fill="#C4C4C4"/>
<rect x="336" y="299" width="24" height="24" fill="#C4C4C4"/>
<rect x="360" y="323" width="24" height="24" fill="#C4C4C4"/>
<rect x="456" y="323" width="24" height="24" fill="#C4C4C4"/>
<rect x="408" y="323" width="24" height="24" fill="#C4C4C4"/>
<rect x="504" y="323" width="24" height="24" fill="#C4C4C4"/>
<rect x="552" y="323" width="24" height="24" fill="#C4C4C4"/>
<rect x="408" y="299" width="24" height="24" fill="#C4C4C4"/>
<rect x="360" y="299" width="24" height="24" fill="#C4C4C4"/>
<rect x="384" y="323" width="24" height="24" fill="#C4C4C4"/>
<rect x="480" y="323" width="24" height="24" fill="#C4C4C4"/>
<rect x="432" y="323" width="24" height="24" fill="#C4C4C4"/>
<rect x="528" y="323" width="24" height="24" fill="#C4C4C4"/>
<rect x="576" y="323" width="24" height="24" fill="#C4C4C4"/>
<rect x="312" y="107" width="24" height="24" fill="black"/>
<rect x="336" y="83" width="24" height="24" fill="black"/>
<rect x="360" y="83" width="24" height="24" fill="black"/>
<rect x="384" y="107" width="24" height="24" fill="black"/>
<rect x="408" y="131" width="24" height="24" fill="black"/>
<rect x="432" y="155" width="24" height="24" fill="black"/>
<rect x="456" y="155" width="24" height="24" fill="black"/>
<rect x="480" y="155" width="24" height="24" fill="black"/>
<rect x="504" y="155" width="24" height="24" fill="black"/>
<rect x="528" y="131" width="24" height="24" fill="black"/>
<rect x="552" y="107" width="24" height="24" fill="black"/>
<rect x="576" y="83" width="24" height="24" fill="black"/>
<rect x="600" y="83" width="24" height="24" fill="black"/>
<rect x="624" y="107" width="24" height="24" fill="black"/>
<rect x="624" y="131" width="24" height="24" fill="black"/>
<rect x="624" y="155" width="24" height="24" fill="black"/>
<rect x="624" y="179" width="24" height="24" fill="black"/>
<rect x="312" y="131" width="24" height="24" fill="black"/>
<rect x="312" y="155" width="24" height="24" fill="black"/>
<rect x="312" y="179" width="24" height="24" fill="black"/>
<rect x="288" y="203" width="24" height="24" fill="black"/>
<rect x="288" y="227" width="24" height="24" fill="black"/>
<rect x="288" y="251" width="24" height="24" fill="black"/>
<rect x="288" y="275" width="24" height="24" fill="black"/>
<rect x="312" y="299" width="24" height="24" fill="black"/>
<rect x="336" y="323" width="24" height="24" fill="black"/>
<rect x="360" y="347" width="24" height="24" fill="black"/>
<rect x="384" y="347" width="24" height="24" fill="black"/>
<rect x="408" y="347" width="24" height="24" fill="black"/>
<rect x="432" y="347" width="24" height="24" fill="black"/>
<rect x="456" y="347" width="24" height="24" fill="black"/>
<rect x="480" y="347" width="24" height="24" fill="black"/>
<rect x="504" y="347" width="24" height="24" fill="black"/>
<rect x="504" y="227" width="24" height="24" fill="black"/>
<rect x="432" y="275" width="24" height="24" fill="black"/>
<rect x="432" y="299" width="24" height="24" fill="black"/>
<rect x="456" y="299" width="24" height="24" fill="black"/>
<rect x="480" y="299" width="24" height="24" fill="black"/>
<rect x="504" y="299" width="24" height="24" fill="black"/>
<rect x="528" y="299" width="24" height="24" fill="black"/>
<rect x="552" y="299" width="24" height="24" fill="black"/>
<rect x="552" y="275" width="24" height="24" fill="black"/>
<rect x="504" y="275" width="24" height="24" fill="black"/>
<rect x="576" y="227" width="24" height="24" fill="black"/>
<rect x="432" y="227" width="24" height="24" fill="black"/>
<rect x="552" y="227" width="24" height="24" fill="black"/>
<rect x="408" y="227" width="24" height="24" fill="black"/>
<rect x="576" y="203" width="24" height="24" fill="black"/>
<rect x="432" y="203" width="24" height="24" fill="black"/>
<rect x="552" y="203" width="24" height="24" fill="white"/>
<rect x="408" y="203" width="24" height="24" fill="white"/>
<rect x="336" y="275" width="24" height="24" fill="#FFAED7"/>
<rect x="600" y="275" width="24" height="24" fill="#FFAED7"/>
<rect x="360" y="275" width="24" height="24" fill="#FFAED7"/>
<rect x="624" y="275" width="24" height="24" fill="#FFAED7"/>
<rect x="360" y="251" width="24" height="24" fill="#FFAED7"/>
<rect x="624" y="251" width="24" height="24" fill="#FFAED7"/>
<rect x="336" y="251" width="24" height="24" fill="#FFAED7"/>
<rect x="600" y="251" width="24" height="24" fill="#FFAED7"/>
<rect x="528" y="347" width="24" height="24" fill="black"/>
<rect x="552" y="347" width="24" height="24" fill="black"/>
<rect x="600" y="323" width="24" height="24" fill="black"/>
<rect x="576" y="347" width="24" height="24" fill="black"/>
<rect x="624" y="299" width="24" height="24" fill="black"/>
<rect x="648" y="275" width="24" height="24" fill="black"/>
<rect x="648" y="251" width="24" height="24" fill="black"/>
<rect x="648" y="227" width="24" height="24" fill="black"/>
<rect x="648" y="203" width="24" height="24" fill="black"/>
</svg>
