<svg width="576" height="300" viewBox="0 0 576 300" fill="none" xmlns="http://www.w3.org/2000/svg">
<rect y="60" width="24" height="24" fill="#FFA500"/>
<rect y="156" width="24" height="24" fill="#00FF00"/>
<rect y="252" width="24" height="24" fill="#9400D3"/>
<rect x="96" y="240" width="24" height="24" fill="#9400D3"/>
<rect x="192" y="252" width="24" height="24" fill="#9400D3"/>
<rect x="288" y="240" width="24" height="24" fill="#9400D3"/>
<rect x="384" y="252" width="24" height="24" fill="#9400D3"/>
<rect x="480" y="240" width="24" height="24" fill="#9400D3"/>
<rect x="96" y="144" width="24" height="24" fill="#00FF00"/>
<rect x="192" y="156" width="24" height="24" fill="#00FF00"/>
<rect x="288" y="144" width="24" height="24" fill="#00FF00"/>
<rect x="384" y="156" width="24" height="24" fill="#00FF00"/>
<rect x="480" y="144" width="24" height="24" fill="#00FF00"/>
<rect x="96" y="48" width="24" height="24" fill="#FFA500"/>
<rect x="192" y="60" width="24" height="24" fill="#FFA500"/>
<rect x="288" y="48" width="24" height="24" fill="#FFA500"/>
<rect x="384" y="60" width="24" height="24" fill="#FFA500"/>
<rect x="480" y="48" width="24" height="24" fill="#FFA500"/>
<rect y="84" width="24" height="24" fill="#FFA500"/>
<rect y="180" width="24" height="24" fill="#00FF00"/>
<rect y="276" width="24" height="24" fill="#9400D3"/>
<rect x="96" y="264" width="24" height="24" fill="#9400D3"/>
<rect x="192" y="276" width="24" height="24" fill="#9400D3"/>
<rect x="288" y="264" width="24" height="24" fill="#9400D3"/>
<rect x="384" y="276" width="24" height="24" fill="#9400D3"/>
<rect x="480" y="264" width="24" height="24" fill="#9400D3"/>
<rect x="96" y="168" width="24" height="24" fill="#00FF00"/>
<rect x="192" y="180" width="24" height="24" fill="#00FF00"/>
<rect x="288" y="168" width="24" height="24" fill="#00FF00"/>
<rect x="384" y="180" width="24" height="24" fill="#00FF00"/>
<rect x="480" y="168" width="24" height="24" fill="#00FF00"/>
<rect x="96" y="72" width="24" height="24" fill="#FFA500"/>
<rect x="192" y="84" width="24" height="24" fill="#FFA500"/>
<rect x="288" y="72" width="24" height="24" fill="#FFA500"/>
<rect x="384" y="84" width="24" height="24" fill="#FFA500"/>
<rect x="480" y="72" width="24" height="24" fill="#FFA500"/>
<rect x="24" y="60" width="24" height="24" fill="#FFA500"/>
<rect x="24" y="156" width="24" height="24" fill="#00FF00"/>
<rect x="24" y="252" width="24" height="24" fill="#9400D3"/>
<rect x="120" y="240" width="24" height="24" fill="#9400D3"/>
<rect x="216" y="252" width="24" height="24" fill="#9400D3"/>
<rect x="312" y="240" width="24" height="24" fill="#9400D3"/>
<rect x="408" y="252" width="24" height="24" fill="#9400D3"/>
<rect x="504" y="240" width="24" height="24" fill="#9400D3"/>
<rect x="120" y="144" width="24" height="24" fill="#00FF00"/>
<rect x="216" y="156" width="24" height="24" fill="#00FF00"/>
<rect x="312" y="144" width="24" height="24" fill="#00FF00"/>
<rect x="408" y="156" width="24" height="24" fill="#00FF00"/>
<rect x="504" y="144" width="24" height="24" fill="#00FF00"/>
<rect x="120" y="48" width="24" height="24" fill="#FFA500"/>
<rect x="216" y="60" width="24" height="24" fill="#FFA500"/>
<rect x="312" y="48" width="24" height="24" fill="#FFA500"/>
<rect x="408" y="60" width="24" height="24" fill="#FFA500"/>
<rect x="504" y="48" width="24" height="24" fill="#FFA500"/>
<rect x="24" y="84" width="24" height="24" fill="#FFA500"/>
<rect x="24" y="180" width="24" height="24" fill="#00FF00"/>
<rect x="24" y="276" width="24" height="24" fill="#9400D3"/>
<rect x="120" y="264" width="24" height="24" fill="#9400D3"/>
<rect x="216" y="276" width="24" height="24" fill="#9400D3"/>
<rect x="312" y="264" width="24" height="24" fill="#9400D3"/>
<rect x="408" y="276" width="24" height="24" fill="#9400D3"/>
<rect x="504" y="264" width="24" height="24" fill="#9400D3"/>
<rect x="120" y="168" width="24" height="24" fill="#00FF00"/>
<rect x="216" y="180" width="24" height="24" fill="#00FF00"/>
<rect x="312" y="168" width="24" height="24" fill="#00FF00"/>
<rect x="408" y="180" width="24" height="24" fill="#00FF00"/>
<rect x="504" y="168" width="24" height="24" fill="#00FF00"/>
<rect x="120" y="72" width="24" height="24" fill="#FFA500"/>
<rect x="216" y="84" width="24" height="24" fill="#FFA500"/>
<rect x="312" y="72" width="24" height="24" fill="#FFA500"/>
<rect x="408" y="84" width="24" height="24" fill="#FFA500"/>
<rect x="504" y="72" width="24" height="24" fill="#FFA500"/>
<rect x="48" y="60" width="24" height="24" fill="#FFA500"/>
<rect x="48" y="156" width="24" height="24" fill="#00FF00"/>
<rect x="48" y="252" width="24" height="24" fill="#9400D3"/>
<rect x="144" y="240" width="24" height="24" fill="#9400D3"/>
<rect x="240" y="252" width="24" height="24" fill="#9400D3"/>
<rect x="336" y="240" width="24" height="24" fill="#9400D3"/>
<rect x="432" y="252" width="24" height="24" fill="#9400D3"/>
<rect x="528" y="240" width="24" height="24" fill="#9400D3"/>
<rect x="144" y="144" width="24" height="24" fill="#00FF00"/>
<rect x="240" y="156" width="24" height="24" fill="#00FF00"/>
<rect x="336" y="144" width="24" height="24" fill="#00FF00"/>
<rect x="432" y="156" width="24" height="24" fill="#00FF00"/>
<rect x="528" y="144" width="24" height="24" fill="#00FF00"/>
<rect x="144" y="48" width="24" height="24" fill="#FFA500"/>
<rect x="240" y="60" width="24" height="24" fill="#FFA500"/>
<rect x="336" y="48" width="24" height="24" fill="#FFA500"/>
<rect x="432" y="60" width="24" height="24" fill="#FFA500"/>
<rect x="528" y="48" width="24" height="24" fill="#FFA500"/>
<rect x="48" y="84" width="24" height="24" fill="#FFA500"/>
<rect x="48" y="180" width="24" height="24" fill="#00FF00"/>
<rect x="48" y="276" width="24" height="24" fill="#9400D3"/>
<rect x="144" y="264" width="24" height="24" fill="#9400D3"/>
<rect x="240" y="276" width="24" height="24" fill="#9400D3"/>
<rect x="336" y="264" width="24" height="24" fill="#9400D3"/>
<rect x="432" y="276" width="24" height="24" fill="#9400D3"/>
<rect x="528" y="264" width="24" height="24" fill="#9400D3"/>
<rect x="144" y="168" width="24" height="24" fill="#00FF00"/>
<rect x="240" y="180" width="24" height="24" fill="#00FF00"/>
<rect x="336" y="168" width="24" height="24" fill="#00FF00"/>
<rect x="432" y="180" width="24" height="24" fill="#00FF00"/>
<rect x="528" y="168" width="24" height="24" fill="#00FF00"/>
<rect x="144" y="72" width="24" height="24" fill="#FFA500"/>
<rect x="240" y="84" width="24" height="24" fill="#FFA500"/>
<rect x="336" y="72" width="24" height="24" fill="#FFA500"/>
<rect x="432" y="84" width="24" height="24" fill="#FFA500"/>
<rect x="528" y="72" width="24" height="24" fill="#FFA500"/>
<rect x="72" y="60" width="24" height="24" fill="#FFA500"/>
<rect x="72" y="156" width="24" height="24" fill="#00FF00"/>
<rect x="72" y="252" width="24" height="24" fill="#9400D3"/>
<rect x="168" y="240" width="24" height="24" fill="#9400D3"/>
<rect x="264" y="252" width="24" height="24" fill="#9400D3"/>
<rect x="360" y="240" width="24" height="24" fill="#9400D3"/>
<rect x="456" y="252" width="24" height="24" fill="#9400D3"/>
<rect x="552" y="240" width="24" height="24" fill="#9400D3"/>
<rect x="168" y="144" width="24" height="24" fill="#00FF00"/>
<rect x="264" y="156" width="24" height="24" fill="#00FF00"/>
<rect x="360" y="144" width="24" height="24" fill="#00FF00"/>
<rect x="456" y="156" width="24" height="24" fill="#00FF00"/>
<rect x="552" y="144" width="24" height="24" fill="#00FF00"/>
<rect x="168" y="48" width="24" height="24" fill="#FFA500"/>
<rect x="264" y="60" width="24" height="24" fill="#FFA500"/>
<rect x="360" y="48" width="24" height="24" fill="#FFA500"/>
<rect x="456" y="60" width="24" height="24" fill="#FFA500"/>
<rect x="552" y="48" width="24" height="24" fill="#FFA500"/>
<rect x="72" y="84" width="24" height="24" fill="#FFA500"/>
<rect x="72" y="180" width="24" height="24" fill="#00FF00"/>
<rect x="72" y="276" width="24" height="24" fill="#9400D3"/>
<rect x="168" y="264" width="24" height="24" fill="#9400D3"/>
<rect x="264" y="276" width="24" height="24" fill="#9400D3"/>
<rect x="360" y="264" width="24" height="24" fill="#9400D3"/>
<rect x="456" y="276" width="24" height="24" fill="#9400D3"/>
<rect x="552" y="264" width="24" height="24" fill="#9400D3"/>
<rect x="168" y="168" width="24" height="24" fill="#00FF00"/>
<rect x="264" y="180" width="24" height="24" fill="#00FF00"/>
<rect x="360" y="168" width="24" height="24" fill="#00FF00"/>
<rect x="456" y="180" width="24" height="24" fill="#00FF00"/>
<rect x="552" y="168" width="24" height="24" fill="#00FF00"/>
<rect x="168" y="72" width="24" height="24" fill="#FFA500"/>
<rect x="264" y="84" width="24" height="24" fill="#FFA500"/>
<rect x="360" y="72" width="24" height="24" fill="#FFA500"/>
<rect x="456" y="84" width="24" height="24" fill="#FFA500"/>
<rect x="552" y="72" width="24" height="24" fill="#FFA500"/>
<rect x="192" y="12" width="24" height="24" fill="#FF0000"/>
<rect x="96" width="24" height="24" fill="#FF0000"/>
<rect y="12" width="24" height="24" fill="#FF0000"/>
<rect y="204" width="24" height="24" fill="#0096FF"/>
<rect x="96" y="192" width="24" height="24" fill="#0096FF"/>
<rect x="192" y="204" width="24" height="24" fill="#0096FF"/>
<rect x="288" y="192" width="24" height="24" fill="#0096FF"/>
<rect x="384" y="204" width="24" height="24" fill="#0096FF"/>
<rect x="480" y="192" width="24" height="24" fill="#0096FF"/>
<rect y="108" width="24" height="24" fill="#FFFF00"/>
<rect x="96" y="96" width="24" height="24" fill="#FFFF00"/>
<rect x="192" y="108" width="24" height="24" fill="#FFFF00"/>
<rect x="288" y="96" width="24" height="24" fill="#FFFF00"/>
<rect x="384" y="108" width="24" height="24" fill="#FFFF00"/>
<rect x="480" y="96" width="24" height="24" fill="#FFFF00"/>
<rect x="288" width="24" height="24" fill="#FF0000"/>
<rect x="384" y="12" width="24" height="24" fill="#FF0000"/>
<rect x="480" width="24" height="24" fill="#FF0000"/>
<rect x="192" y="36" width="24" height="24" fill="#FF0000"/>
<rect x="96" y="24" width="24" height="24" fill="#FF0000"/>
<rect y="36" width="24" height="24" fill="#FF0000"/>
<rect y="228" width="24" height="24" fill="#0096FF"/>
<rect x="96" y="216" width="24" height="24" fill="#0096FF"/>
<rect x="192" y="228" width="24" height="24" fill="#0096FF"/>
<rect x="288" y="216" width="24" height="24" fill="#0096FF"/>
<rect x="384" y="228" width="24" height="24" fill="#0096FF"/>
<rect x="480" y="216" width="24" height="24" fill="#0096FF"/>
<rect y="132" width="24" height="24" fill="#FFFF00"/>
<rect x="96" y="120" width="24" height="24" fill="#FFFF00"/>
<rect x="192" y="132" width="24" height="24" fill="#FFFF00"/>
<rect x="288" y="120" width="24" height="24" fill="#FFFF00"/>
<rect x="384" y="132" width="24" height="24" fill="#FFFF00"/>
<rect x="480" y="120" width="24" height="24" fill="#FFFF00"/>
<rect x="288" y="24" width="24" height="24" fill="#FF0000"/>
<rect x="384" y="36" width="24" height="24" fill="#FF0000"/>
<rect x="480" y="24" width="24" height="24" fill="#FF0000"/>
<rect x="216" y="12" width="24" height="24" fill="#FF0000"/>
<rect x="120" width="24" height="24" fill="#FF0000"/>
<rect x="24" y="12" width="24" height="24" fill="#FF0000"/>
<rect x="24" y="204" width="24" height="24" fill="#0096FF"/>
<rect x="120" y="192" width="24" height="24" fill="#0096FF"/>
<rect x="216" y="204" width="24" height="24" fill="#0096FF"/>
<rect x="312" y="192" width="24" height="24" fill="#0096FF"/>
<rect x="408" y="204" width="24" height="24" fill="#0096FF"/>
<rect x="504" y="192" width="24" height="24" fill="#0096FF"/>
<rect x="24" y="108" width="24" height="24" fill="#FFFF00"/>
<rect x="120" y="96" width="24" height="24" fill="#FFFF00"/>
<rect x="216" y="108" width="24" height="24" fill="#FFFF00"/>
<rect x="312" y="96" width="24" height="24" fill="#FFFF00"/>
<rect x="408" y="108" width="24" height="24" fill="#FFFF00"/>
<rect x="504" y="96" width="24" height="24" fill="#FFFF00"/>
<rect x="312" width="24" height="24" fill="#FF0000"/>
<rect x="408" y="12" width="24" height="24" fill="#FF0000"/>
<rect x="504" width="24" height="24" fill="#FF0000"/>
<rect x="216" y="36" width="24" height="24" fill="#FF0000"/>
<rect x="120" y="24" width="24" height="24" fill="#FF0000"/>
<rect x="24" y="36" width="24" height="24" fill="#FF0000"/>
<rect x="24" y="228" width="24" height="24" fill="#0096FF"/>
<rect x="120" y="216" width="24" height="24" fill="#0096FF"/>
<rect x="216" y="228" width="24" height="24" fill="#0096FF"/>
<rect x="312" y="216" width="24" height="24" fill="#0096FF"/>
<rect x="408" y="228" width="24" height="24" fill="#0096FF"/>
<rect x="504" y="216" width="24" height="24" fill="#0096FF"/>
<rect x="24" y="132" width="24" height="24" fill="#FFFF00"/>
<rect x="120" y="120" width="24" height="24" fill="#FFFF00"/>
<rect x="216" y="132" width="24" height="24" fill="#FFFF00"/>
<rect x="312" y="120" width="24" height="24" fill="#FFFF00"/>
<rect x="408" y="132" width="24" height="24" fill="#FFFF00"/>
<rect x="504" y="120" width="24" height="24" fill="#FFFF00"/>
<rect x="312" y="24" width="24" height="24" fill="#FF0000"/>
<rect x="408" y="36" width="24" height="24" fill="#FF0000"/>
<rect x="504" y="24" width="24" height="24" fill="#FF0000"/>
<rect x="240" y="12" width="24" height="24" fill="#FF0000"/>
<rect x="144" width="24" height="24" fill="#FF0000"/>
<rect x="48" y="12" width="24" height="24" fill="#FF0000"/>
<rect x="48" y="204" width="24" height="24" fill="#0096FF"/>
<rect x="144" y="192" width="24" height="24" fill="#0096FF"/>
<rect x="240" y="204" width="24" height="24" fill="#0096FF"/>
<rect x="336" y="192" width="24" height="24" fill="#0096FF"/>
<rect x="432" y="204" width="24" height="24" fill="#0096FF"/>
<rect x="528" y="192" width="24" height="24" fill="#0096FF"/>
<rect x="48" y="108" width="24" height="24" fill="#FFFF00"/>
<rect x="144" y="96" width="24" height="24" fill="#FFFF00"/>
<rect x="240" y="108" width="24" height="24" fill="#FFFF00"/>
<rect x="336" y="96" width="24" height="24" fill="#FFFF00"/>
<rect x="432" y="108" width="24" height="24" fill="#FFFF00"/>
<rect x="528" y="96" width="24" height="24" fill="#FFFF00"/>
<rect x="336" width="24" height="24" fill="#FF0000"/>
<rect x="432" y="12" width="24" height="24" fill="#FF0000"/>
<rect x="528" width="24" height="24" fill="#FF0000"/>
<rect x="240" y="36" width="24" height="24" fill="#FF0000"/>
<rect x="144" y="24" width="24" height="24" fill="#FF0000"/>
<rect x="48" y="36" width="24" height="24" fill="#FF0000"/>
<rect x="48" y="228" width="24" height="24" fill="#0096FF"/>
<rect x="144" y="216" width="24" height="24" fill="#0096FF"/>
<rect x="240" y="228" width="24" height="24" fill="#0096FF"/>
<rect x="336" y="216" width="24" height="24" fill="#0096FF"/>
<rect x="432" y="228" width="24" height="24" fill="#0096FF"/>
<rect x="528" y="216" width="24" height="24" fill="#0096FF"/>
<rect x="48" y="132" width="24" height="24" fill="#FFFF00"/>
<rect x="144" y="120" width="24" height="24" fill="#FFFF00"/>
<rect x="240" y="132" width="24" height="24" fill="#FFFF00"/>
<rect x="336" y="120" width="24" height="24" fill="#FFFF00"/>
<rect x="432" y="132" width="24" height="24" fill="#FFFF00"/>
<rect x="528" y="120" width="24" height="24" fill="#FFFF00"/>
<rect x="336" y="24" width="24" height="24" fill="#FF0000"/>
<rect x="432" y="36" width="24" height="24" fill="#FF0000"/>
<rect x="528" y="24" width="24" height="24" fill="#FF0000"/>
<rect x="264" y="12" width="24" height="24" fill="#FF0000"/>
<rect x="168" width="24" height="24" fill="#FF0000"/>
<rect x="72" y="12" width="24" height="24" fill="#FF0000"/>
<rect x="72" y="204" width="24" height="24" fill="#0096FF"/>
<rect x="168" y="192" width="24" height="24" fill="#0096FF"/>
<rect x="264" y="204" width="24" height="24" fill="#0096FF"/>
<rect x="360" y="192" width="24" height="24" fill="#0096FF"/>
<rect x="456" y="204" width="24" height="24" fill="#0096FF"/>
<rect x="552" y="192" width="24" height="24" fill="#0096FF"/>
<rect x="72" y="108" width="24" height="24" fill="#FFFF00"/>
<rect x="168" y="96" width="24" height="24" fill="#FFFF00"/>
<rect x="264" y="108" width="24" height="24" fill="#FFFF00"/>
<rect x="360" y="96" width="24" height="24" fill="#FFFF00"/>
<rect x="456" y="108" width="24" height="24" fill="#FFFF00"/>
<rect x="552" y="96" width="24" height="24" fill="#FFFF00"/>
<rect x="360" width="24" height="24" fill="#FF0000"/>
<rect x="456" y="12" width="24" height="24" fill="#FF0000"/>
<rect x="552" width="24" height="24" fill="#FF0000"/>
<rect x="264" y="36" width="24" height="24" fill="#FF0000"/>
<rect x="168" y="24" width="24" height="24" fill="#FF0000"/>
<rect x="72" y="36" width="24" height="24" fill="#FF0000"/>
<rect x="72" y="228" width="24" height="24" fill="#0096FF"/>
<rect x="168" y="216" width="24" height="24" fill="#0096FF"/>
<rect x="264" y="228" width="24" height="24" fill="#0096FF"/>
<rect x="360" y="216" width="24" height="24" fill="#0096FF"/>
<rect x="456" y="228" width="24" height="24" fill="#0096FF"/>
<rect x="552" y="216" width="24" height="24" fill="#0096FF"/>
<rect x="72" y="132" width="24" height="24" fill="#FFFF00"/>
<rect x="168" y="120" width="24" height="24" fill="#FFFF00"/>
<rect x="264" y="132" width="24" height="24" fill="#FFFF00"/>
<rect x="360" y="120" width="24" height="24" fill="#FFFF00"/>
<rect x="456" y="132" width="24" height="24" fill="#FFFF00"/>
<rect x="552" y="120" width="24" height="24" fill="#FFFF00"/>
<rect x="360" y="24" width="24" height="24" fill="#FF0000"/>
<rect x="456" y="36" width="24" height="24" fill="#FF0000"/>
<rect x="552" y="24" width="24" height="24" fill="#FF0000"/>
</svg>
